<svg xmlns="http://www.w3.org/2000/svg" fill="none" viewBox="0 0 443 96"><defs/><rect width="442.68" height="96" fill="#FF813F" rx="15"/><path fill="#fff" d="M100.1 23.43V21.9c0-.84-.72-1.52-1.6-1.52h-.55c-.9 0-1.61.69-1.61 1.52v1.53h-1.62c-.9 0-1.62.68-1.62 1.52v.5c0 .85.73 1.52 1.62 1.52h1.62v1.52c0 .85.72 1.53 1.61 1.53h.54c.9 0 1.62-.69 1.62-1.53v-1.52h1.61c.9 0 1.62-.68 1.62-1.52v-.5c0-.85-.73-1.52-1.62-1.52h-1.61z"/><path fill="#FF9100" d="M65.2 31.23l-16.96-.1 8.33 49.8H76.87l8.32-49.8-19.98.1z"/><path fill="#FD0" d="M65.2 31.23l-16.96-.1 8.33 49.8h16.05l8.33-49.8-15.74.1z"/><path fill="#fff" d="M43.4 31.13h43.76v-4.6H43.4v4.6z"/><path fill="#000" d="M88.3 32.2H42.26v-6.74H88.3v6.73zm-43.77-2.14h41.5v-2.45h-41.5v2.45z"/><path fill="#fff" d="M78.68 19.08H51.57l-3.18 6.88h33.47l-3.18-6.88z"/><path fill="#050505" d="M83.6 27.03H46.65L50.83 18h28.6l4.16 9.03zm-33.47-2.14h30l-2.19-4.75H52.32l-2.2 4.75z"/><path fill="#000" d="M77.84 82H52.57l-8.69-51.94 21.32.1 21.32-.1L77.84 82zM54.5 79.86H75.9l7.97-47.66-18.67.1-18.65-.1 7.97 47.66z"/><path fill="#fff" d="M85.8 45.19H44.45l3.74 19.8 16.94-.16 16.93.17 3.74-19.81z"/><path fill="#000" d="M83.02 66.08l-17.9-.19-17.88.19-4.14-21.95h44.06l-4.14 21.95zm-17.9-2.32l15.99.16 3.34-17.66H45.82l3.32 17.66 15.97-.16z"/><path fill="#fff" d="M38.93 74.11c1.62 0 2.93-1.23 2.93-2.76 0-1.52-1.31-2.75-2.93-2.75S36 69.83 36 71.35c0 1.53 1.31 2.76 2.93 2.76z"/><path fill="#fff" fill-rule="evenodd" d="M129 56.74a7.38 7.38 0 01-2.02 2.3 11.1 11.1 0 01-3 1.6c-1.15.4-2.3.68-3.45.82-1.16.14-2.29.12-3.38-.04a6.74 6.74 0 01-2.77-1.02l.85-8.39a34.27 34.27 0 016.68-1.36c1.27-.11 2.47-.1 3.6.04s2.02.48 2.67 1.02c.36.3.66.63.9 1 .25.35.4.72.45 1.1a4.67 4.67 0 01-.53 2.93zm-12.46-17.87c.57-.33 1.26-.63 2.06-.88.8-.26 1.63-.44 2.48-.54.84-.1 1.66-.11 2.47-.04.8.08 1.51.3 2.12.64a3.2 3.2 0 011.37 1.49c.3.65.38 1.48.25 2.47a3.4 3.4 0 01-1 2.01c-.56.55-1.24 1.01-2.05 1.38-.8.37-1.65.67-2.55.88a22.86 22.86 0 01-4.76.67l-1.2.04.81-8.12zm16.87 12.45a7.86 7.86 0 00-1.75-2.35 6.67 6.67 0 00-2.62-1.48 5.4 5.4 0 001.29-1.57 13.46 13.46 0 001.7-4.88c.1-.86.06-1.6-.13-2.2a7.55 7.55 0 00-2.18-3.61 8.27 8.27 0 00-3.47-1.8c-1.33-.33-2.78-.4-4.38-.21-1.6.2-3.22.57-4.88 1.13 0-.13.01-.26.04-.4s.04-.29.04-.44c0-.39-.2-.72-.61-1-.4-.28-.88-.45-1.41-.5a2.7 2.7 0 00-1.55.33c-.5.27-.85.76-1.04 1.47l-.66 7.17a5124.57 5124.57 0 01-2.17 22.22c.09.69.3 1.23.62 1.6.33.4.7.62 1.14.7.44.08.9 0 1.37-.21.48-.22.9-.6 1.25-1.13 1.09.56 2.31.92 3.68 1.09 1.36.17 2.74.17 4.14 0 1.4-.17 2.79-.48 4.15-.94 1.36-.46 2.6-1.03 3.72-1.72a12.1 12.1 0 002.82-2.36 6.75 6.75 0 001.5-2.85c.25-1.05.32-2.1.21-3.15a8.63 8.63 0 00-.81-2.9zm39.86 20.23c-.15.84-.36 1.73-.63 2.66-.27.94-.6 1.79-.96 2.55a7.22 7.22 0 01-1.23 1.86c-.45.47-.93.67-1.45.6-.4-.06-.66-.3-.77-.73a4 4 0 010-1.61c.1-.64.32-1.36.63-2.17a18.18 18.18 0 012.68-4.67c.57-.73 1.17-1.34 1.8-1.82.13.15.2.53.18 1.15-.02.61-.1 1.34-.25 2.18zm13.85-16.63c-.37-.38-.81-.6-1.35-.65-.53-.05-1.06.23-1.61.85a9 9 0 01-1.35 1.76 16.92 16.92 0 01-3.37 2.72c-.53.33-.94.57-1.25.73-.1-.82-.16-1.7-.18-2.65a34.23 34.23 0 01.57-7.05c.26-1.4.64-2.78 1.13-4.14 0-.71-.18-1.3-.53-1.74a2.26 2.26 0 00-1.3-.84 2.39 2.39 0 00-1.54.19c-.53.24-1 .68-1.37 1.32-.33.84-.7 1.79-1.13 2.84-.42 1.04-.9 2.11-1.43 3.2a31.54 31.54 0 01-1.77 3.16 16.69 16.69 0 01-2.15 2.72 9.23 9.23 0 01-2.53 1.86c-.91.44-1.9.64-2.96.59-.5-.13-.85-.47-1.07-1.04a6.76 6.76 0 01-.38-2.1c-.05-.85 0-1.77.12-2.78a37.31 37.31 0 011.16-5.84c.25-.9.48-1.65.7-2.26.32-.74.32-1.36 0-1.86-.33-.5-.78-.83-1.35-1a3.2 3.2 0 00-1.8.02c-.63.18-1.07.58-1.35 1.19a34.34 34.34 0 00-2.19 7.57 28.46 28.46 0 00-.38 4.28v.12c-.6 1.48-1.16 2.6-1.7 3.35-.7.98-1.47 1.4-2.34 1.27-.39-.15-.64-.51-.76-1.07a7.98 7.98 0 01-.12-2.07c.04-.82.14-1.75.3-2.78.17-1.03.37-2.1.62-3.22.24-1.11.5-2.23.77-3.35.27-1.13.52-2.19.74-3.18-.03-.9-.3-1.58-.84-2.05-.53-.47-1.27-.66-2.23-.56-.65.26-1.14.6-1.45 1-.31.4-.56.93-.75 1.57-.11.33-.28 1-.5 2a84.76 84.76 0 01-2.04 7.46c-.46 1.4-.98 2.68-1.55 3.82a10.8 10.8 0 01-1.88 2.74c-.68.68-1.41.97-2.2.84-.44-.08-.72-.5-.84-1.27a12.6 12.6 0 01-.06-2.83c.08-1.13.24-2.36.49-3.7a120.05 120.05 0 011.47-7l.45-1.83a2.8 2.8 0 00-.53-1.78 2.27 2.27 0 00-1.3-.84 2.39 2.39 0 00-1.54.19c-.53.24-1 .68-1.37 1.32-.14.69-.32 1.49-.53 2.4a109.6 109.6 0 00-1.6 8.02l-.18 1.97c-.07.78-.1 1.6-.1 2.47 0 .87.07 1.74.2 2.6.14.85.38 1.63.74 2.35.35.71.85 1.3 1.49 1.76.64.46 1.45.71 2.43.77 1 .05 1.88-.02 2.63-.21.75-.2 1.43-.5 2.05-.9.61-.41 1.17-.9 1.67-1.46.5-.56 1-1.18 1.5-1.84a5.81 5.81 0 001.8 2.26 4.95 4.95 0 004.81.63c.85-.32 1.6-.86 2.29-1.63.45-.47.87-1 1.27-1.6a5.1 5.1 0 003.27 2.48c1.22.31 2.42.36 3.6.16 1.16-.2 2.28-.58 3.34-1.11a15.87 15.87 0 002.96-1.94 18 18 0 002.4-2.35c-.03.58-.05 1.14-.05 1.66 0 .53-.01 1.1-.04 1.7a22.8 22.8 0 00-3.86 3.23 25.79 25.79 0 00-3.19 4 20.84 20.84 0 00-2.14 4.31 11.8 11.8 0 00-.76 4.08c.02 1.27.34 2.37.96 3.31a5.24 5.24 0 003.07 2.04c1.47.43 2.76.44 3.88.03a7.11 7.11 0 002.92-2.03c.83-.94 1.51-2.08 2.04-3.43a28.12 28.12 0 001.86-8.49c.08-1.4.08-2.65 0-3.75a17.84 17.84 0 005.76-3.48c1.5-1.4 2.74-2.89 3.72-4.45.3-.38.4-.84.3-1.38-.09-.53-.32-1-.69-1.38zm51.9-4.3c-.16.64-.28 1.26-.36 1.85a5.1 5.1 0 00-.04 1.42 5.46 5.46 0 002.98-1.46 6.22 6.22 0 001.53-2.37c.3-.84.38-1.64.3-2.38-.1-.74-.36-1.22-.77-1.45a1.09 1.09 0 00-1.12-.06c-.37.2-.71.51-1.04.96-.33.44-.61.97-.86 1.59-.24.61-.45 1.24-.61 1.9zM251.54 54c.4-.1.84-.08 1.29.04.45.13.83.35 1.14.67.31.32.42.69.3 1.1-.6 1.48-1.18 2.8-1.77 3.94a17.7 17.7 0 01-1.94 3.05 11.4 11.4 0 01-5.52 3.77c-1.6.54-3.09.77-4.45.71a7.39 7.39 0 01-3.55-1.01c-1.01-.62-1.8-1.49-2.4-2.61l-.13-.3-.04-.1-.02-.05-.06.08-.07.08c-.86 1.01-1.89 1.83-3.09 2.45a8.8 8.8 0 01-4.12.94 4.01 4.01 0 01-2.56-.78 5.65 5.65 0 01-1.57-1.92 8.15 8.15 0 01-.78-2.4c-.13-.84-.2-1.58-.2-2.21 0-.92.06-1.8.19-2.65.12-.84.26-1.66.42-2.47.17-.8.31-1.58.43-2.34.13-.75.19-1.48.19-2.2a6.2 6.2 0 00-.35-2.3c-.23-.56-.57-.84-1-.84-.85 0-1.64.46-2.4 1.4-.74.93-1.42 2.13-2.03 3.6a36.67 36.67 0 00-1.64 4.98c-.48 1.85-.85 3.7-1.12 5.54-.08.63-.38 1.09-.9 1.36-.52.26-1.07.37-1.66.3a3.28 3.28 0 01-1.59-.61 1.64 1.64 0 01-.71-1.4l.26-1.82a58.33 58.33 0 00.5-6.51c0-1.22-.08-2.33-.25-3.36a6.72 6.72 0 00-.9-2.5 2 2 0 00-1.78-.98c-.63 0-1.22.27-1.8.82a9.94 9.94 0 00-1.65 2.2c-.53.92-1.02 1.98-1.45 3.18-.44 1.2-.83 2.47-1.17 3.8a50.03 50.03 0 00-.85 4.02 37.85 37.85 0 00-.47 3.83 1.6 1.6 0 01-.97 1.34c-.55.26-1.14.36-1.77.31a3.44 3.44 0 01-1.68-.57c-.49-.34-.7-.77-.65-1.3.38-2.33.66-4.38.84-6.14.17-1.76.28-3.3.3-4.61.03-1.32.01-2.43-.06-3.34-.07-.9-.15-1.68-.26-2.32-.11-.63-.23-1.15-.35-1.55-.12-.4-.2-.73-.22-1.01a1.9 1.9 0 01.63-1.77 2.58 2.58 0 011.7-.65c.6 0 1.05.1 1.38.27.33.18.58.44.76.79.18.34.3.76.37 1.26.06.5.13 1.08.18 1.74.35-.56.76-1.13 1.22-1.7.47-.58.99-1.1 1.56-1.55.57-.46 1.2-.84 1.9-1.13.7-.3 1.45-.44 2.27-.44a6.67 6.67 0 014.47 1.66 7.45 7.45 0 011.55 1.84c.42.7.74 1.46.96 2.28.6-1.07 1.26-2.1 1.98-3.06a7.09 7.09 0 012.92-2.26 5.54 5.54 0 016.24.94 7.4 7.4 0 011.9 2.64 8.2 8.2 0 01.69 3.31c0 1.33-.09 2.72-.27 4.18l-.47 4.06a20.8 20.8 0 00-.14 3.14c.04.85.28 1.32.72 1.42.73.18 1.44-.02 2.12-.61a10 10 0 001.86-2.19 22.5 22.5 0 001.56-2.84v-.02l.09-.18a29.22 29.22 0 01.86-6.69c.3-1.22.71-2.37 1.23-3.43.51-1.06 1.16-1.99 1.94-2.8a6.72 6.72 0 012.84-1.74 6.8 6.8 0 012.73-.34 4.8 4.8 0 014.05 2.74c.4.83.6 1.84.57 3.04-.05 1.28-.3 2.56-.73 3.85a11.06 11.06 0 01-1.92 3.49 9.64 9.64 0 01-3.09 2.49c-1.21.63-2.6.89-4.14.79.02.79.12 1.55.28 2.3.16.74.43 1.37.8 1.9.37.52.86.89 1.49 1.1.63.22 1.41.19 2.37-.1a9.08 9.08 0 002.74-1.26 12.88 12.88 0 005.14-6.97c.11-.44.37-.7.78-.8zm23.5-4.23c-.14.75-.33 1.58-.56 2.49-.23.9-.52 1.85-.88 2.82-.35.97-.79 1.84-1.3 2.62a6.76 6.76 0 01-1.78 1.86c-.67.46-1.44.65-2.31.57-.44-.05-.77-.33-1-.84a4.96 4.96 0 01-.37-1.95 15.33 15.33 0 01.98-5.38c.34-.91.76-1.75 1.25-2.52a5.88 5.88 0 011.7-1.78 3.53 3.53 0 012.1-.6 4.3 4.3 0 012.45 1.08l-.29 1.63zm14.52 2.93c-.43-.2-.86-.25-1.31-.13-.45.11-.77.5-.96 1.17a15.82 15.82 0 01-2.14 5.29 8.88 8.88 0 01-1.93 2.16c-.72.57-1.49.83-2.3.78a1.59 1.59 0 01-1.44-.97 5.65 5.65 0 01-.42-2.27c-.02-.9.08-1.92.28-3.06.2-1.14.45-2.27.74-3.4.28-1.11.58-2.2.88-3.23.3-1.03.54-1.9.73-2.62.22-.64.15-1.18-.2-1.63-.36-.45-.8-.77-1.33-.96a3.18 3.18 0 00-1.61-.15c-.55.09-.9.36-1.07.82-1.6-1.3-3.15-2-4.63-2.1-1.49-.1-2.86.2-4.11.91a10.53 10.53 0 00-3.33 3.1 19.16 19.16 0 00-3.47 9.32 12.6 12.6 0 00.34 4.54 6.87 6.87 0 002.03 3.35c.96.87 2.28 1.3 3.94 1.3.74 0 1.44-.14 2.12-.42a10.73 10.73 0 003.4-2.2c.43-.42.77-.77 1.02-1.06a6.41 6.41 0 002.43 3.91 6 6 0 003.53 1.2c1.28 0 2.48-.42 3.6-1.24a14.27 14.27 0 003-3 18.85 18.85 0 003.33-7.26c.19-.39.16-.79-.1-1.21-.26-.42-.6-.73-1.02-.94zM362 76.06c.49-.6.85-1.34 1.08-2.2a9.9 9.9 0 00-.3-5.75c-.34-.9-.8-1.67-1.42-2.32a3.6 3.6 0 00-2.3-1.13l-.23 1.84a55.28 55.28 0 00-.37 5.36c-.01.94.03 1.8.12 2.57.1.76.27 1.39.52 1.87.24.49.6.72 1.06.7a2.4 2.4 0 001.84-.94zm-14.8 0a5.8 5.8 0 001.09-2.2 9.87 9.87 0 00-.3-5.75c-.33-.9-.8-1.67-1.42-2.32a3.6 3.6 0 00-2.3-1.13l-.23 1.84a54 54 0 00-.37 5.36c-.01.94.03 1.8.13 2.57.09.76.26 1.39.5 1.87.25.49.6.72 1.07.7a2.4 2.4 0 001.84-.94zm-14.27-22.34c.1-.47.15-1.02.18-1.63.03-.61.01-1.25-.04-1.92-.06-.66-.15-1.25-.29-1.76-.13-.5-.3-.9-.53-1.17-.22-.27-.47-.32-.77-.17a2.36 2.36 0 00-1.29 1.82 5.7 5.7 0 00.22 2.38c.25.8.59 1.52 1.02 2.16.44.64.8 1.04 1.1 1.19.17-.13.3-.43.4-.9zm-4.84 7.1c.51-.3.98-.67 1.4-1.09.43-.42.75-.85.97-1.28a7.32 7.32 0 01-1.95-1.57c-.53-.61-.98-1.29-1.36-2.03-.6-1.23-.96-2.54-1.07-3.93-.1-1.4 0-2.74.33-4.04-.87.18-1.68.63-2.41 1.36-.74.73-1.36 1.6-1.88 2.6-.52 1.01-.88 2.1-1.1 3.28a9.4 9.4 0 00-.06 3.32 5.5 5.5 0 001.24 2.7c.66.76 1.6 1.26 2.82 1.49.44.08.93.04 1.47-.11a6.66 6.66 0 001.6-.7zm46.98-10.2c-.16.65-.29 1.27-.37 1.85a5.1 5.1 0 00-.04 1.42 5.46 5.46 0 002.98-1.46 6.21 6.21 0 001.54-2.37c.28-.84.38-1.64.28-2.38-.1-.74-.35-1.22-.75-1.45a1.08 1.08 0 00-1.13-.06c-.37.2-.71.51-1.04.96-.33.45-.61.97-.86 1.59-.24.61-.45 1.24-.61 1.9zm16.47 0c-.17.65-.29 1.27-.37 1.85a5.1 5.1 0 00-.04 1.42 5.46 5.46 0 002.98-1.46 6.22 6.22 0 001.53-2.37c.29-.84.38-1.64.29-2.38-.1-.74-.35-1.22-.76-1.45a1.08 1.08 0 00-1.12-.06c-.37.2-.72.51-1.04.96a7.2 7.2 0 00-.86 1.59c-.25.61-.45 1.24-.62 1.9zm13.78 3.42c.45.13.84.36 1.15.67.31.32.41.69.3 1.1-.6 1.48-1.19 2.8-1.77 3.94a17.73 17.73 0 01-1.94 3.05 11.4 11.4 0 01-5.52 3.77c-1.6.54-3.09.77-4.45.71a7.39 7.39 0 01-3.56-1.01 6.46 6.46 0 01-2.82-3.63l-.05.07-.07.09a11.4 11.4 0 01-5.51 3.77c-1.61.54-3.1.77-4.46.71a7.4 7.4 0 01-3.55-1.01c-1.01-.62-1.8-1.48-2.4-2.6a9.26 9.26 0 01-.92-3.28 40.75 40.75 0 01-3.22 1.93 8.5 8.5 0 01-1.76.73 8.77 8.77 0 011.93 3.22c.46 1.3.74 2.68.85 4.15.11 1.47.04 2.93-.22 4.39-.26 1.46-.7 2.74-1.33 3.85a7.27 7.27 0 01-2.45 2.63c-1 .63-2.2.86-3.6.69a5.23 5.23 0 01-3.16-1.42 8.05 8.05 0 01-1.86-2.9c-.44-1.13-.72-2.4-.86-3.79-.14-1.4-.19-2.77-.16-4.14.02-1.36.08-2.67.18-3.9.1-1.24.16-2.28.18-3.13 0-.38.04-1.02.1-1.93l-.19.13-.33.21c-.73.45-1.43.85-2.1 1.21a8.5 8.5 0 01-1.77.73 8.77 8.77 0 011.92 3.22c.47 1.3.75 2.68.86 4.15.11 1.47.04 2.93-.22 4.39-.26 1.46-.7 2.74-1.33 3.85a7.27 7.27 0 01-2.45 2.63c-1.01.63-2.2.86-3.6.69a5.23 5.23 0 01-3.16-1.42 8.03 8.03 0 01-1.86-2.9c-.44-1.13-.72-2.4-.86-3.79-.14-1.4-.19-2.77-.16-4.14.02-1.36.08-2.67.18-3.9.1-1.24.16-2.28.18-3.13 0-.48.06-1.4.17-2.76l.04-.46c-1.54.49-3.1.73-4.7.73a10.78 10.78 0 01-4.09 4c-1.66.91-3.47 1.38-5.43 1.4a8.93 8.93 0 01-4.62-1.03 8.44 8.44 0 01-3.7-4.18 18.19 18.19 0 01-4.31 3.07c-1 .51-1.98.93-2.93 1.26-.74.26-1.52.46-2.33.6-.82.14-1.65.17-2.48.1a8.07 8.07 0 01-2.39-.6 5.5 5.5 0 01-2.04-1.51 8.3 8.3 0 01-1.65-2.95c-.4-1.18-.65-2.43-.76-3.76a20.7 20.7 0 011-8.1 15.2 15.2 0 011.64-3.45 8.3 8.3 0 012.3-2.43 7.1 7.1 0 014.15-1.25c1.35.07 2.42.63 3.2 1.7a2.14 2.14 0 011.85 2.65l-.58 4.87c-.05 0-.09-.02-.12-.04-.3.61-.69 1.06-1.16 1.34-.48.28-.96.39-1.45.32a2.31 2.31 0 01-1.33-.67 3 3 0 01-.8-1.6c0-.34.04-.75.13-1.25.08-.5.14-.98.18-1.46.04-.47.02-.88-.06-1.22a.72.72 0 00-.66-.6c-.62.34-1.17.9-1.63 1.67-.46.78-.85 1.66-1.14 2.64-.3.99-.51 2.03-.64 3.13a20.8 20.8 0 00-.12 3.16c.04 1 .18 1.9.4 2.7a3.47 3.47 0 002.8 2.6c.66.1 1.34.1 2.05-.03.6-.1 1.28-.3 2.04-.58.76-.28 1.54-.69 2.31-1.23a11.85 11.85 0 003.64-4.18 14.45 14.45 0 011.55-6.26c.7-1.41 1.59-2.65 2.68-3.7a10.54 10.54 0 018.87-2.87 6.22 6.22 0 013.28-.23c.94.23 1.72.68 2.35 1.34a7.27 7.27 0 011.5 2.48 13.68 13.68 0 01.85 4.8c.01.62 0 1.23-.04 1.84-.04.62-.1 1.2-.17 1.77-.06.56-.15 1.07-.26 1.53a7.86 7.86 0 003.16-.74v-.1c.16-1.84.33-3.82.54-5.94.2-2.12.4-4.18.61-6.17.2-2 .4-3.83.61-5.52.2-1.69.4-3.01.6-3.98.38-.64.86-1.05 1.45-1.23.58-.18 1.13-.2 1.65-.04.52.15.94.44 1.27.84.32.41.4.89.24 1.42l-2.53 25.44a13.7 13.7 0 003.43-.67c1.12-.37 2.2-.84 3.23-1.42a24.57 24.57 0 002.96-1.93l.5-.39.22-.18v-.13l.02-.1a1016.36 1016.36 0 011.14-12.1c.2-2 .4-3.84.61-5.53.2-1.69.4-3.01.6-3.98.38-.64.86-1.05 1.44-1.23.59-.18 1.14-.2 1.66-.04.52.15.94.44 1.27.84.32.41.4.89.24 1.42l-2.53 25.44a13.7 13.7 0 003.43-.67c1.12-.37 2.2-.84 3.23-1.42a24.64 24.64 0 003.53-2.38l.22-.18a29.21 29.21 0 01.82-5.58c.3-1.22.71-2.37 1.23-3.43s1.16-1.99 1.94-2.8a6.73 6.73 0 012.84-1.74c.93-.3 1.84-.42 2.74-.34a4.8 4.8 0 014.04 2.74c.41.83.6 1.84.57 3.04-.05 1.28-.3 2.56-.73 3.85a11.03 11.03 0 01-1.92 3.5 9.64 9.64 0 01-3.09 2.48c-1.2.63-2.6.89-4.14.79.02.79.12 1.56.28 2.3.17.74.43 1.37.8 1.9.37.52.87.89 1.5 1.1a3.9 3.9 0 002.36-.1 9.07 9.07 0 002.74-1.26 12.85 12.85 0 004.44-5.1c.01-1.05.08-2.15.22-3.3.13-1.2.35-2.4.65-3.63.3-1.22.7-2.37 1.22-3.43s1.17-1.99 1.95-2.8a6.73 6.73 0 012.84-1.74c.92-.3 1.83-.42 2.73-.34a4.8 4.8 0 014.04 2.74c.42.83.6 1.84.58 3.04-.06 1.28-.3 2.56-.74 3.85a11.07 11.07 0 01-1.92 3.5 9.65 9.65 0 01-3.08 2.48c-1.21.63-2.6.89-4.15.79.03.79.13 1.56.29 2.3.16.74.43 1.37.8 1.9.36.52.86.89 1.49 1.1a3.9 3.9 0 002.37-.1 9.09 9.09 0 002.73-1.26 12.88 12.88 0 005.15-6.97c.11-.43.37-.7.78-.8.4-.1.83-.1 1.28.03z" clip-rule="evenodd"/></svg>