<svg width="87" height="118" viewBox="0 0 87 118" fill="none" xmlns="http://www.w3.org/2000/svg">
<path d="M80.582 32.1559C83.4243 33.848 85.4062 37.0961 85.4739 40.4034C85.8004 56.3397 86.1674 101.691 85.9174 101.519C85.6885 101.362 69.942 110.938 62.1925 115.562C59.6216 117.097 56.3914 117.039 53.8281 115.492C40.7734 107.614 1.38855 83.8753 1.13506 84.0527C0.872619 84.2363 1.06348 34.9427 1.12042 21.4945C1.12958 19.3302 2.07699 17.3913 3.89367 16.2149C10.8937 11.6819 28.7812 0.754726 28.7536 1.0042C28.7251 1.26081 67.0177 24.0809 80.582 32.1559Z" fill="url(#paint0_linear)" fill-opacity="0.8"/>
<path d="M51.7123 54.6503C51.579 54.3287 7.82039 28.7579 7.82039 29.0697V80.7181C7.82039 80.913 52.1868 107.341 52.1868 107.03C52.1868 106.718 51.8455 54.9719 51.7123 54.6503Z" fill="url(#paint1_linear)" fill-opacity="0.8"/>
<path d="M80.582 32.1559C83.4243 33.848 85.4062 37.0961 85.4739 40.4034C85.8004 56.3397 86.1674 101.691 85.9174 101.519C85.6885 101.362 69.942 110.938 62.1925 115.562C59.6216 117.097 56.3914 117.039 53.8281 115.492C40.7734 107.614 1.38855 83.8753 1.13506 84.0527C0.872619 84.2363 1.06348 34.9427 1.12042 21.4945C1.12958 19.3302 2.07699 17.3913 3.89367 16.2149C10.8937 11.6819 28.7812 0.754726 28.7536 1.0042C28.7251 1.26081 67.0177 24.0809 80.582 32.1559Z" stroke="url(#paint2_linear)" stroke-opacity="0.5" stroke-width="1.73183"/>
<path d="M51.7123 54.6503C51.579 54.3287 7.82039 28.7579 7.82039 29.0697V80.7181C7.82039 80.913 52.1868 107.341 52.1868 107.03C52.1868 106.718 51.8455 54.9719 51.7123 54.6503Z" stroke="url(#paint3_linear)" stroke-opacity="0.5" stroke-width="1.73183"/>
<defs>
<linearGradient id="paint0_linear" x1="-14.2234" y1="33.2415" x2="54.0412" y2="105.605" gradientUnits="userSpaceOnUse">
<stop stop-color="white" stop-opacity="0.46"/>
<stop offset="1" stop-color="white" stop-opacity="0"/>
</linearGradient>
<linearGradient id="paint1_linear" x1="-14.2234" y1="33.2415" x2="54.0412" y2="105.605" gradientUnits="userSpaceOnUse">
<stop stop-color="white" stop-opacity="0.46"/>
<stop offset="1" stop-color="white" stop-opacity="0"/>
</linearGradient>
<linearGradient id="paint2_linear" x1="10.2514" y1="49.963" x2="35.6033" y2="101.843" gradientUnits="userSpaceOnUse">
<stop stop-color="white"/>
<stop offset="1" stop-color="white" stop-opacity="0"/>
</linearGradient>
<linearGradient id="paint3_linear" x1="10.2514" y1="49.963" x2="35.6033" y2="101.843" gradientUnits="userSpaceOnUse">
<stop stop-color="white"/>
<stop offset="1" stop-color="white" stop-opacity="0"/>
</linearGradient>
</defs>
</svg>
