<svg width="246" height="76" viewBox="0 0 246 76" fill="none" xmlns="http://www.w3.org/2000/svg">
<g clip-path="url(#clip0)">
<path d="M78.6947 70.0665C81.3159 68.8463 83.101 67.3323 84.0501 65.5246C85.0443 63.7621 85.5414 61.1183 85.5414 57.5933V26.139H92.2526V57.5933C92.2526 62.3385 91.3939 66.1347 89.6766 68.9819C88.0045 71.829 85.2477 74.1564 81.4063 75.9642L78.6947 70.0665ZM104.886 15.2928H111.529V50.4754H119.257V58H104.886V15.2928ZM163.263 50.4754V58H152.959C148.44 58 144.101 57.2091 139.943 55.6274C135.786 57.2091 131.425 58 126.86 58H116.556V50.4754H126.86C127.899 50.4754 129.278 50.4302 130.995 50.3398C128.284 47.9898 126.182 45.3008 124.691 42.2729C123.245 39.1998 122.522 35.9233 122.522 32.4434C122.522 30.6357 123.064 29.2348 124.148 28.2405C125.233 27.2011 127.018 26.478 129.504 26.0713C131.989 25.6193 135.447 25.3934 139.876 25.3934C144.35 25.3934 147.83 25.6193 150.315 26.0713C152.801 26.478 154.586 27.2011 155.671 28.2405C156.755 29.2348 157.297 30.6357 157.297 32.4434C157.297 35.9233 156.552 39.1998 155.06 42.2729C153.614 45.3008 151.535 47.9898 148.824 50.3398C150.632 50.4302 152.032 50.4754 153.027 50.4754H163.263ZM129.165 32.918C129.165 40.6459 132.758 45.8431 139.943 48.5095C147.084 45.8431 150.654 40.6459 150.654 32.918H129.165ZM218.675 26.2746C219.217 28.0823 219.669 30.3194 220.031 32.9858C220.392 35.6521 220.573 38.0926 220.573 40.307C220.573 44.9619 220.144 48.5547 219.285 51.0855C218.471 53.5711 217.093 55.3562 215.15 56.4408C213.252 57.4803 210.54 58 207.015 58C204.168 58 201.863 57.8418 200.101 57.5255C198.338 57.2091 196.937 56.6442 195.898 55.8307C194.813 56.6442 193.344 57.2091 191.491 57.5255C189.684 57.8418 187.288 58 184.306 58H160.579V50.4754H171.29V32.2401H177.933V50.4754H187.356C189.254 50.4754 190.587 50.2268 191.356 49.7297C192.169 49.2326 192.576 48.2835 192.576 46.8826V32.2401H199.287V44.1032C199.287 45.459 199.264 46.4306 199.219 47.0181C199.264 48.3739 199.671 49.3004 200.439 49.7975C201.253 50.2494 202.586 50.4754 204.439 50.4754H213.116C213.658 48.0802 213.93 44.8037 213.93 40.6459C213.93 37.0757 213.319 32.6242 212.099 27.2915L218.675 26.2746ZM232.653 26.139H239.296V58H232.653V26.139ZM243.77 11.1576V14.6827L228.179 18.8856V15.3605L231.026 14.5471C230.574 13.5076 230.348 11.9711 230.348 9.93741C230.348 6.45756 231.342 4.01714 233.331 2.61617C235.319 1.16999 238.234 0.401716 242.075 0.311332V4.51426C239.454 4.60465 237.149 5.12437 235.161 6.07342L235.093 11.361C235.093 12.4456 235.568 12.9879 236.517 12.9879C236.743 12.9879 237.262 12.8975 238.076 12.7168L243.77 11.1576Z" fill="#FEFDFF"/>
<path d="M55.7083 14.125H19.2083C15.8486 14.125 13.125 16.8486 13.125 20.2083V56.7083C13.125 60.0681 15.8486 62.7917 19.2083 62.7917H55.7083C59.0681 62.7917 61.7917 60.0681 61.7917 56.7083V20.2083C61.7917 16.8486 59.0681 14.125 55.7083 14.125Z" fill="#EDEDEF" fill-opacity="0.25"/>
<path d="M46.5833 29.3333H28.3333V47.5833H46.5833V29.3333Z" fill="#EDEDEF" fill-opacity="0.25"/>
<path d="M28.3333 5V14.125M46.5833 5V14.125M28.3333 62.7917V71.9167M46.5833 62.7917V71.9167M61.7917 29.3333H70.9167M61.7917 44.5417H70.9167M4 29.3333H13.125M4 44.5417H13.125M19.2083 14.125H55.7083C59.0681 14.125 61.7917 16.8486 61.7917 20.2083V56.7083C61.7917 60.0681 59.0681 62.7917 55.7083 62.7917H19.2083C15.8486 62.7917 13.125 60.0681 13.125 56.7083V20.2083C13.125 16.8486 15.8486 14.125 19.2083 14.125ZM28.3333 29.3333H46.5833V47.5833H28.3333V29.3333Z" stroke="#FEFDFF" stroke-width="6.08333" stroke-linecap="round" stroke-linejoin="round"/>
</g>
<defs>
<clipPath id="clip0">
<rect width="246" height="76" fill="white"/>
</clipPath>
</defs>
</svg>
